PathFileType	4	(X/Y/Z)	pose2sim_150-449.trc
DataRate	CameraRate	NumFrames	NumMarkers	Units	OrigDataRate	OrigDataStartFrame	OrigNumFrames
50	50	9	22	m	50	187	300
Frame#	Time	Hip			RHip			RKnee			RAnkle			RBigToe			RSmallToe			RHeel			LHip			LKnee			LAnkle			LBigToe			LSmallToe			LHeel			Neck			Head			Nose			RShoulder			RElbow			RWrist			LShoulder			LElbow			LWrist			
		X1	Y1	Z1	X2	Y2	Z2	X3	Y3	Z3	X4	Y4	Z4	X5	Y5	Z5	X6	Y6	Z6	X7	Y7	Z7	X8	Y8	Z8	X9	Y9	Z9	X10	Y10	Z10	X11	Y11	Z11	X12	Y12	Z12	X13	Y13	Z13	X14	Y14	Z14	X15	Y15	Z15	X16	Y16	Z16	X17	Y17	Z17	X18	Y18	Z18	X19	Y19	Z19	X20	Y20	Z20	X21	Y21	Z21	X22	Y22	Z22	
187	3.74	0.13227956600233653	0.9848199830289991	-0.0419053369517915	0.02916648195827283	0.9688769722673686	-0.04148665261856109	0.012691181081056028	0.5204788817529513	-0.07085393254266426	0.002160885144222596	0.09259626356580915	-0.09470500190811795	0.017501416320618152	0.0385973487344459	0.0961790531507491	-0.037071237272872815	0.038833292494889614	0.05685049361126283	0.00646982318496508	0.04416741981471693	-0.13808501351760777	0.23411053458330192	0.9643114229701288	-0.06272408448183454	0.23733419382742066	0.5183626745994957	-0.11114898947162895	0.24546117407226248	0.09155419298542772	-0.11550903059045872	0.2753999136068903	0.03926247606727748	0.0799494713645181	0.31633563599936926	0.040627289258561475	0.019837612121998787	0.2338271429595158	0.04497449862782318	-0.1520892952402346	0.14289435550899207	1.5783174994022415	-0.08323653529913193	0.14807835747789408	1.8306124774663326	-0.051180771344862694	0.134507518312156	1.7032942534929276	0.06336744594091319	-0.01231515975223465	1.488414914786967	-0.0761383086128319	-0.06347187412535847	1.2932405285215298	0.1309855040909924	-0.0362664233040475	1.5183220496904068	0.28438575809377903	0.2987586177373275	1.4820658975447625	-0.1100350511484517	0.36609194405806905	1.2705249911715801	0.07932614324090366	0.35077698671871943	1.4839365974483292	0.21076841459286114
188	3.76	0.1301619656217035	0.981414603745533	-0.043465603547053	0.02891532810422123	0.9694671423449504	-0.041032380363417595	0.0102559528561232	0.5198878426420386	-0.07460053522400231	-0.0012467171247618376	0.09028357901596337	-0.09531929213504514	0.017765288750585712	0.03501338766145662	0.09988304637859237	-0.03553935554185595	0.038221618494580036	0.05966037998466213	0.006035310654494807	0.04304285836244352	-0.13652553102373624	0.23601691235294842	0.9661128528836744	-0.05963741796888655	0.23921917419455838	0.5178515631298203	-0.11131438629402061	0.24406233674811004	0.08960162616137327	-0.11402003685419705	0.27088560001778805	0.0371113098363222	0.08564587369275514	0.31141015055219406	0.04120543696032628	0.024884775490223318	0.2363768684275986	0.043923743188447655	-0.15505100203035216	0.1439973759223392	1.5797073279887972	-0.08593035686159779	0.1478380274379301	1.8303202189566874	-0.04934400269307903	0.1349539648365811	1.7026429609106288	0.06792941123481695	-0.011602689989303786	1.4894649478434372	-0.0777489303778332	-0.06945579334053967	1.2930578317658172	0.11888360115934678	-0.04101111163464595	1.5116933285055327	0.2885236799257343	0.29944246826956883	1.4845053716429877	-0.10992751852820139	0.3700932812353477	1.2746100047595257	0.07579628855022519	0.3625280902225371	1.4837775285002905	0.21305980151744622
189	3.78	0.13261942153672746	0.9829883002720039	-0.05168961212848159	0.02825809414401204	0.9684905453947756	-0.043051079830238176	0.01185236968025278	0.5192928845390379	-0.0734712849323359	8.409968078726133e-05	0.08937848217113466	-0.09362411069556448	0.020368062566837347	0.034124050873535205	0.09980895922673008	-0.03464470813066108	0.03733529544191365	0.05710399269926285	0.00554822854566749	0.04224149872690824	-0.13729279154769775	0.2352359821930684	0.9635136188618392	-0.06642756070755969	0.2375181075597173	0.5173797774845577	-0.11176011771690093	0.24404245174975805	0.09163542656809683	-0.11434058814990158	0.27373368425132366	0.03630457154868717	0.0814708335907674	0.31359243206119536	0.03896844311410935	0.022265540503445497	0.23662564673403122	0.044515872650063	-0.15363753006437464	0.14385391220343405	1.5789422921820564	-0.08623819905162199	0.14605016720365743	1.8298237985814512	-0.05244760608709919	0.13463310090277122	1.7005755747011573	0.062355630642638694	-0.010640838337211415	1.4883334718156023	-0.0820202130139528	-0.06601531410916547	1.2949382482984553	0.1265923588812016	-0.044566039915935975	1.5100554878499082	0.29372245911549816	0.29911824247914826	1.4823824172745563	-0.11599190590016473	0.3705879800195168	1.2763590823719269	0.07728007543569271	0.3690753260492886	1.483546799704843	0.23514027049412664
190	3.8	0.1322655394816868	0.9858404154048503	-0.04948317212608101	0.032191159004010386	0.9689308616626123	-0.03818563302549913	0.012707922727560677	0.5156117079956799	-0.06734162101244012	0.0023666533823308647	0.09243609300673676	-0.08956620669559658	0.010709732661564787	0.044603386519570846	0.11561551645793101	-0.042209521714372096	0.03740574109569792	0.059482850918453345	0.014715000320385929	0.04896003888196027	-0.12801436297767899	0.2334753242869736	0.9661617828762549	-0.05482727002863368	0.2402480440589505	0.5138009255304432	-0.10393269031153231	0.24319792984627775	0.08991063917132712	-0.1115069427119778	0.27570516803389256	0.04046668006505536	0.08886963021094924	0.3140410632424848	0.038151261027382616	0.03060493961025924	0.23199444383077278	0.04547661112395554	-0.14191190920386323	0.14431316785544163	1.579214335962389	-0.0950348095067327	0.14611958306313189	1.826853525055464	-0.06106136443322948	0.14514920966137765	1.6957095178562909	0.06355490504408248	-0.010770168345654023	1.4870794582985927	-0.07765570794820084	-0.0672845620646244	1.2859010100774462	0.11814836577409654	-0.08401193619143774	1.4939108572006248	0.21555329889858224	0.29953794240250176	1.4839002310376526	-0.11296066689144796	0.3710577130491142	1.27206360142714	0.07305306017606486	0.3804052276285157	1.468398390431744	0.23226682615033037
191	3.82	0.1311313709083367	0.9829705825764495	-0.050233192416253646	0.02998393758381573	0.9672558439216201	-0.0467762059792656	0.010645696448193196	0.5192451609966933	-0.07039523384775392	0.0003446530230980841	0.09033291006915734	-0.09293653610623655	0.018734450892684454	0.036044860885174126	0.09834749448828639	-0.03655823298231648	0.03784442218750298	0.05550835617785288	0.006340031226850045	0.04355904307732447	-0.13197629491086293	0.23639080903854529	0.9635753255169255	-0.06383326799599452	0.2382869722291819	0.5173292017681543	-0.11055405016317578	0.24541176051427624	0.08962047435906409	-0.1164021340222835	0.272567601604238	0.0358385169095335	0.08446251635160874	0.31080450140575894	0.038584221852536	0.02363875166179245	0.23804496353196689	0.044075260045239054	-0.15372324725590508	0.14188410985179836	1.5794200104111287	-0.09211008795526231	0.14541271183604568	1.8291584750515069	-0.06104993185783336	0.14027446488716785	1.700618397582484	0.06692064060831708	-0.011390131265558748	1.4855675480546593	-0.08270185192622898	-0.07261117344234712	1.2874821341868579	0.10343317024600523	-0.09283567963446421	1.4935065045731921	0.21477032292053033	0.30229728756405133	1.4847306375817158	-0.11454157674999917	0.3719015021501983	1.271897127413217	0.08105297242117308	0.38017550997638716	1.476052462471882	0.2697917705331
192	3.84	0.1313394953900674	0.9833236963256425	-0.05088022519430555	0.029839459050971153	0.9674445847023453	-0.04925665630092142	0.011716935125102905	0.5205636153534253	-0.07361454467407275	0.001296709419435079	0.08839106929726022	-0.09738952427429858	0.018541996158106172	0.033735801570007246	0.09693566071975619	-0.03627920968696922	0.03564012139569684	0.05269300498714214	0.007580446373090204	0.04588294055022812	-0.134690250708148	0.23708805655366502	0.966768852590272	-0.06770818327595551	0.23887685652894972	0.5201589061622551	-0.11061111256168911	0.2461490406358298	0.0890763804279542	-0.11792500833000401	0.26985844922693825	0.03363380159995115	0.07735583681647505	0.3111779172004118	0.037989123308566644	0.017646397878566835	0.23434055190360967	0.04344190762700618	-0.15276004494538675	0.14378539550061423	1.5792315030010318	-0.08992134142448606	0.14570432543425405	1.8284122004525944	-0.06347183751666395	0.14243970162089	1.7031463041861101	0.06346653549081492	-0.007553639369513786	1.4864584204645537	-0.08523447956003628	-0.07476843111669593	1.283272083451335	0.10255539465518096	-0.08326010511814996	1.4909564694151427	0.2633352443899974	0.3014069099047035	1.4823362596136325	-0.12075291958909344	0.371272490101527	1.2682700037970713	0.06778254700855343	0.3887963506265418	1.4608610228067347	0.26409799189272753
193	3.86	0.1317997734094669	0.9842775457042093	-0.056585652205374655	0.031707000110393777	0.9679216644885482	-0.05070463685674068	0.01122751355721855	0.5196640142700002	-0.07142570854641928	-0.0006128893733346768	0.0919551197465789	-0.09442338953566297	0.014047476165962478	0.0360577549864594	0.09623813662000597	-0.039998590417653225	0.036308814717625586	0.053821206577352274	0.00996946069706016	0.04460992642901126	-0.131714711986243	0.23731536608048878	0.9643966876068415	-0.06586948604867764	0.23948465559422977	0.5209655852984558	-0.11231625407170585	0.24418025437992	0.08979811490075158	-0.11772974026156866	0.270163558657464	0.034492342414530176	0.07637095368917773	0.31153287722565526	0.037192983749869145	0.01454486980798017	0.2332702008234902	0.04541938832147424	-0.15643408733747052	0.1429353736406214	1.580039336605242	-0.09146070721172453	0.1421055900042208	1.8306505517926264	-0.06462834749042874	0.14025750985541405	1.7023489793871014	0.0587288681150004	-0.008678355531479746	1.4872030048522848	-0.08684032392067231	-0.07313884596195817	1.2804422579548222	0.10530687432904201	-0.08319465443377384	1.4836316804151082	0.2812041950214041	0.3019581779145274	1.4805406046650713	-0.11947695525653058	0.3716434488160463	1.2641419254534405	0.07055187545150268	0.3910815561894049	1.4526504533667284	0.26824851862645016
194	3.88	0.12965719096893435	0.9872001474806252	-0.053220545992926624	0.0313251716770127	0.9673688166193742	-0.04229115480044049	0.013402931432131282	0.5156342811448318	-0.07137061974986436	0.0023059578065285965	0.09149116090943975	-0.0875197244419532	0.009374114499628211	0.04244425741985703	0.11015435758539767	-0.04058738950457269	0.04029694121455841	0.05246733673244175	0.018033428971606338	0.04615907540307839	-0.11924483444011535	0.2348491246512803	0.96734602566895	-0.06057343809136727	0.24047294426126178	0.5149616207648914	-0.10901228487379382	0.24398183292985004	0.08865332805072812	-0.10967515724014704	0.2780098766839985	0.04477799545212274	0.08584122571846303	0.31473197334230263	0.04055565761826001	0.025939100703335344	0.23255153987156035	0.0448662131514335	-0.14167685016961293	0.14182938415151916	1.57682538266086	-0.1007212055689428	0.14311326396910018	1.826977422250487	-0.06883978888210374	0.14095342348713694	1.6942699488100579	0.05523587493394072	-0.01556744002224419	1.482203139553159	-0.09309362413438806	-0.07260031981360825	1.2789481524582762	0.11323919456086055	-0.09603387116873807	1.4739206116797456	0.2707959552874324	0.30028522325233037	1.4821114208293025	-0.12889536321907696	0.3741288925498851	1.2643937377680023	0.06403882908269307	0.39222410560657894	1.4429697740380367	0.2806028557727628
195	3.9	0.13287454775291863	0.9857053470055358	-0.05964737782185568	0.02995220318039243	0.9683081150648261	-0.054514110365201734	0.013515763613495563	0.520659657286625	-0.07590927722489994	-0.0008834180545688368	0.0889594330335665	-0.09243684434494048	0.02032668086967228	0.037123199460451055	0.09142082380385833	-0.039211142357775015	0.03761030964681487	0.048343513304242795	0.008352758104831996	0.04496234294244542	-0.12691587961087686	0.23918595068937362	0.9647333193716603	-0.07212878154779999	0.2396088443233644	0.520545480910111	-0.11126731668022986	0.24412846086905968	0.08980238310366635	-0.12021287908555958	0.2722809150189887	0.04026093168463712	0.07328518482237223	0.31624481836992596	0.04168416422839435	0.010828632657161018	0.23342281829313144	0.04405978074810211	-0.15228687190513926	0.14460006768788083	1.57864556431364	-0.10348884685515919	0.14253161650490553	1.8292624724423427	-0.07244174851058201	0.1381104779867436	1.700576652972775	0.05045225890125871	-0.011873124425327187	1.481830269258142	-0.09345813513295241	-0.07503231399986479	1.2737900094895707	0.10641449399858025	-0.08310780942052512	1.4636642794484498	0.3209754286621066	0.3033369112205947	1.4779917156016764	-0.12312967382681889	0.3751943938883151	1.263684559358437	0.052636273394724716	0.4062252090912507	1.433154616897833	0.26901437483161544
